<?xml version="1.0" encoding="UTF-8" standalone="no"?>
<!DOCTYPE svg PUBLIC "-//W3C//DTD SVG 1.1//EN" "http://www.w3.org/Graphics/SVG/1.1/DTD/svg11.dtd">
<svg width="100%" height="100%" viewBox="0 0 2000 2000" version="1.1" xmlns="http://www.w3.org/2000/svg" xmlns:xlink="http://www.w3.org/1999/xlink" xml:space="preserve" xmlns:serif="http://www.serif.com/" style="fill-rule:evenodd;clip-rule:evenodd;stroke-linecap:round;stroke-linejoin:round;stroke-miterlimit:1.5;">
    <g transform="matrix(1.099187,-0.770191,0.774757,1.105703,177.719343,500.937065)">
        <path d="M256.821,805.893C235.264,818.997 143.689,675.813 122.073,535.712C110.545,460.987 169.169,362.207 168.598,296.655C168.222,253.467 307.848,187.11 451.584,142.087C597.888,96.26 748.451,72.537 759.964,117.851C768.629,151.957 690.246,176.439 634.35,330.502C616.997,378.332 618.185,436.364 585.023,474.953C538.115,529.538 430.171,522.83 316.103,649.56C260.015,711.874 299.61,779.882 256.821,805.893Z" style="stroke:black;stroke-width:0.74px;"/>
    </g>
    <g transform="matrix(-0.581913,-0.813251,0.813251,-0.581913,628.902308,2582.622838)">
        <path d="M748.327,594.361C810.638,587.945 894.348,503.213 965.21,430.441C1053.276,340.001 1115.437,163.244 1202.134,199.9C1358.591,266.052 1629.189,898.335 1553.28,1006.397C1530.864,1038.308 1408.609,931.14 1288.859,923.951C1206.326,918.997 1075.987,945.128 1001.098,983.579C864.861,1053.527 752.709,1142.048 722.458,1124.425C691.215,1106.224 656.51,1098.543 625.683,1033.502C596.838,972.644 668.773,871.519 703.451,766.836C728.096,692.443 703.041,599.024 748.327,594.361Z" style="stroke:black;stroke-width:1px;"/>
    </g>
    <g transform="matrix(1.18015,-0.108591,0.091628,0.995793,-617.095369,206.128166)">
        <path d="M1402.336,872.774C1431.928,750.242 1500.859,557.814 1551.341,648.65C1579.739,699.748 1666.41,1009.426 1788.945,1189.26C1884.239,1329.113 2049.053,1329.878 2039.18,1429.099C2021.042,1611.388 1618.263,1817.272 1542.167,1889.705C1499.457,1930.36 1393.329,1920.567 1337.617,1901.251C1264.804,1876.006 1045.751,1708.274 1059.89,1641.899C1074.03,1575.524 1388.779,1589.985 1453.862,1455.208C1523.431,1311.144 1365.05,1027.167 1402.336,872.774Z" style="stroke:black;stroke-width:0.91px;"/>
    </g>
</svg>
