<?xml version="1.0" encoding="UTF-8" standalone="no"?>
<!DOCTYPE svg PUBLIC "-//W3C//DTD SVG 1.1//EN" "http://www.w3.org/Graphics/SVG/1.1/DTD/svg11.dtd">
<svg width="100%" height="100%" viewBox="0 0 2000 2000" version="1.1" xmlns="http://www.w3.org/2000/svg" xmlns:xlink="http://www.w3.org/1999/xlink" xml:space="preserve" xmlns:serif="http://www.serif.com/" style="fill-rule:evenodd;clip-rule:evenodd;stroke-linecap:round;stroke-linejoin:round;stroke-miterlimit:1.5;">
    <g transform="matrix(1.662518,0,0,1.662518,-77.926097,-1058.488927)">
        <path d="M201.349,1121.421C188.992,1101.779 73.441,918.107 151.284,835.702C162.098,824.254 176.515,808.993 326.36,745.734C418.323,706.912 501.829,695.589 503.989,707.565C507.745,728.396 462.053,742.806 428.432,835.475C417.994,864.244 409.2,893.592 398.762,922.361C384.181,931.759 327.755,956.242 259.144,1032.47C225.407,1069.952 204.943,1113.733 201.349,1121.421ZM398.123,923.556C551.413,850.862 700.905,901.392 748.207,924.784C914.304,1006.921 947.69,1134.156 962.773,1162.296C930.687,1193.72 791.396,1380.482 494.238,1328.079C461.49,1322.304 409.175,1303.787 407.801,1300.547C400.964,1284.428 353.251,1099.901 398.123,923.556ZM962.773,1162.296C1036.525,1068.916 1024.601,934.873 1055.93,954.782C1120.463,995.791 1220.998,1266.514 1144.963,1490.12C1109.932,1593.14 984.055,1774.196 974.482,1773.331C940.6,1770.267 878.561,1753.723 870.337,1751.529C786.338,1729.13 789.525,1721.082 711.701,1682.221C712.013,1682.054 841.229,1637.664 921.367,1511.982C998.486,1391.034 990.643,1243.869 962.773,1162.296ZM711.701,1682.221C570.427,1732.598 372.465,1699.782 256.172,1554.477C134.891,1402.939 154.651,1221.327 201.349,1121.421C250.856,1200.112 323.212,1263.007 409.078,1300.765C460.252,1461.76 569.285,1597.071 711.701,1682.221Z" style="stroke:black;stroke-width:0.6px;"/>
    </g>
</svg>
